<?xml version="1.0" encoding="UTF-8" standalone="no"?>
<!-- Created with Inkscape (http://www.inkscape.org/) -->

<svg
   width="6.4054933mm"
   height="6.7896461mm"
   viewBox="0 0 6.4054933 6.7896461"
   version="1.1"
   id="svg1"
   sodipodi:docname="envoy.svg"
   xml:space="preserve"
   inkscape:version="1.3 (0e150ed6c4, 2023-07-21)"
   xmlns:inkscape="http://www.inkscape.org/namespaces/inkscape"
   xmlns:sodipodi="http://sodipodi.sourceforge.net/DTD/sodipodi-0.dtd"
   xmlns:xlink="http://www.w3.org/1999/xlink"
   xmlns="http://www.w3.org/2000/svg"
   xmlns:svg="http://www.w3.org/2000/svg"><sodipodi:namedview
     id="namedview1"
     pagecolor="#ffffff"
     bordercolor="#000000"
     borderopacity="0.25"
     inkscape:showpageshadow="2"
     inkscape:pageopacity="0.0"
     inkscape:pagecheckerboard="true"
     inkscape:deskcolor="#d1d1d1"
     inkscape:document-units="mm"
     inkscape:zoom="2.1549615"
     inkscape:cx="-43.156224"
     inkscape:cy="26.914635"
     inkscape:window-width="1728"
     inkscape:window-height="1011"
     inkscape:window-x="0"
     inkscape:window-y="0"
     inkscape:window-maximized="1"
     inkscape:current-layer="layer1" /><defs
     id="defs1"><clipPath
       id="d"><use
         width="100%"
         height="100%"
         overflow="visible"
         xlink:href="#c"
         id="use61" /></clipPath><clipPath
       id="clipPath1"><use
         width="100%"
         height="100%"
         overflow="visible"
         xlink:href="#c"
         id="use1" /></clipPath><path
       id="c"
       d="m 179.95,147.92 h 55 v 55 h -55 z" /><style
       id="style1">.cls-1{fill:#4285f4;}.cls-1,.cls-2,.cls-4{fill-rule:evenodd;}.cls-2{fill:#1e88e5;}.cls-3,.cls-4{fill:#aecbfa;}.cls-5{fill:#669df6;}</style></defs><g
     inkscape:label="Layer 1"
     inkscape:groupmode="layer"
     id="layer1"
     transform="translate(-43.139602,-65.036566)"><g
       id="g1"
       transform="matrix(0.38380028,0,0,0.38380028,44.343928,54.116544)"><g
         id="svg_16"
         transform="matrix(0.26458333,0,0,0.26458333,-3.3839614,28.027435)"><path
           id="svg_17"
           d="m 46.488998,37.568001 h -8.039997 v -4.128002 c 0,-3.296997 -2.683002,-5.979 -5.98,-5.979 -3.297001,0 -5.979,2.683002 -5.979,5.979 v 4.128002 H 18.45 v -4.128002 c 0,-7.73 6.288998,-14.019999 14.02,-14.019999 7.731002,0 14.02,6.289 14.02,14.019999 v 4.128002 z"
           fill="#f9a11d" /></g><path
         id="svg_18"
         d="M 9.7742962,37.967302 H 0.6395573 c -0.38999609,0 -0.70908333,0.319087 -0.70908333,0.709083 v 6.757459 c 0,0.389995 0.31908724,0.709083 0.70908333,0.709083 h 9.1347389 c 0.3899968,0 0.7090838,-0.319088 0.7090838,-0.709083 v -6.757459 c 0,-0.389996 -0.319087,-0.709083 -0.7090838,-0.709083 z M 5.6698158,42.4041 v 0.915722 c 0,0.255588 -0.2074333,0.462756 -0.4627565,0.462756 -0.2553232,0 -0.4627565,-0.207433 -0.4627565,-0.462756 v -0.915457 c -0.2846916,-0.161661 -0.477044,-0.466725 -0.477044,-0.817563 0,-0.519113 0.4209521,-0.9398 0.9398005,-0.9398 0.519112,0 0.9397995,0.420952 0.9397995,0.9398 0,0.350573 -0.1923524,0.655638 -0.477043,0.817298 z"
         fill="#2c3c69"
         style="stroke-width:0.264583" /><path
         id="svg_19"
         d="M -0.28648409,36.959768 H -2.4907278 c -0.3574524,0 -0.6471708,-0.289718 -0.6471708,-0.647171 0,-0.357452 0.2897184,-0.64717 0.6471708,-0.64717 h 2.20424371 c 0.35745208,0 0.64717056,0.289719 0.64717056,0.64717 0,0.357452 -0.28998359,0.647171 -0.64717056,0.647171 z"
         fill="#f9a11d"
         style="stroke-width:0.264583" /><path
         id="svg_20"
         d="m 1.2660909,33.492404 c -0.1444628,0 -0.29024792,-0.04815 -0.41063334,-0.147373 l -1.74360414,-1.433777 c -0.27596072,-0.227013 -0.31591252,-0.634735 -0.0886357,-0.910961 0.22701249,-0.27596 0.63473541,-0.315912 0.91096067,-0.0889 l 1.74360421,1.433778 c 0.2759601,0.227012 0.3159124,0.634735 0.088635,0.91096 -0.1277937,0.15584 -0.3132667,0.236273 -0.5003267,0.236273 z"
         fill="#f9a11d"
         style="stroke-width:0.264583" /><path
         id="svg_21"
         d="m 5.2067953,31.968404 c -0.3574526,0 -0.6471716,-0.289719 -0.6471716,-0.647171 v -2.221706 c 0,-0.357452 0.289719,-0.647171 0.6471716,-0.647171 0.3574526,0 0.6471705,0.289719 0.6471705,0.647171 v 2.221706 c 0,0.357452 -0.289719,0.647171 -0.6471705,0.647171 z"
         fill="#f9a11d"
         style="stroke-width:0.264583" /><g
         id="svg_22"
         transform="matrix(0.26458333,0,0,0.26458333,-3.3839614,28.027435)"><g
           id="svg_23"><path
             id="svg_24"
             d="M 47.362999,20.655001 C 46.655998,20.655001 45.956001,20.351 45.472,19.761999 44.613998,18.719 44.764,17.177 45.806999,16.319 l 6.59,-5.419001 c 1.044003,-0.858 2.585003,-0.706999 3.442997,0.336 0.858002,1.042999 0.708,2.584999 -0.334999,3.443001 l -6.589996,5.418999 C 48.459999,20.472999 47.91,20.655 47.362999,20.655001 Z"
             fill="#f9a11d" /></g></g><path
         id="svg_25"
         d="m 12.904583,36.959768 h -2.225147 c -0.357452,0 -0.64717,-0.289718 -0.64717,-0.647171 0,-0.357452 0.289718,-0.64717 0.64717,-0.64717 h 2.225147 c 0.357452,0 0.647171,0.289719 0.647171,0.64717 0,0.357452 -0.289719,0.647171 -0.647171,0.647171 z"
         fill="#f9a11d"
         style="stroke-width:0.264583" /></g></g></svg>
