<?xml version="1.0" encoding="UTF-8" standalone="no"?>
<svg
   viewBox="0 0 32.786777 26.386204"
   version="1.1"
   id="svg10"
   width="32.786777"
   height="26.386204"
   xmlns="http://www.w3.org/2000/svg"
   xmlns:svg="http://www.w3.org/2000/svg">
  <defs
     id="defs1">
    <style
       id="style1">.cls-1{fill:#ea4335;}.cls-2{fill:#4285f4;}.cls-3{fill:#34a853;}.cls-4{fill:#fbbc05;}.cls-5{fill:#5f6368;}</style>
  </defs>
  <g
     id="g10"
     transform="translate(-1.0453144,-0.14407654)">
    <path
       class="cls-1"
       d="m 21.85,7.41 h 1 L 25.7,4.56 25.84,3.35 A 12.81,12.81 0 0 0 5,9.6 1.55,1.55 0 0 1 6,9.54 L 11.7,8.6 c 0,0 0.29,-0.48 0.44,-0.45 a 7.11,7.11 0 0 1 9.73,-0.74 z"
       id="path1" />
    <path
       class="cls-2"
       d="M 29.76,9.6 A 12.84,12.84 0 0 0 25.89,3.36 l -4,4 A 7.11,7.11 0 0 1 24.5,13 v 0.71 a 3.56,3.56 0 1 1 0,7.12 h -7.12 l -0.71,0.72 v 4.27 l 0.71,0.71 H 24.5 A 9.26,9.26 0 0 0 29.76,9.6 Z"
       id="path2" />
    <path
       class="cls-3"
       d="m 10.25,26.49 h 7.12 v -5.7 H 10.25 A 3.54,3.54 0 0 1 8.78,20.47 l -1,0.31 -2.87,2.85 -0.25,1 a 9.21,9.21 0 0 0 5.59,1.86 z"
       id="path3" />
    <path
       class="cls-4"
       d="M 10.25,8 A 9.26,9.26 0 0 0 4.66,24.6 l 4.13,-4.13 a 3.56,3.56 0 1 1 4.71,-4.71 l 4.13,-4.13 A 9.25,9.25 0 0 0 10.25,8 Z"
       id="path4" />
  </g>
</svg>
