<?xml version="1.0" encoding="UTF-8" standalone="no"?>
<svg
   viewBox="0 0 309.16763 48.434662"
   version="1.1"
   id="svg10"
   width="309.16763"
   height="48.434662"
   xmlns="http://www.w3.org/2000/svg"
   xmlns:svg="http://www.w3.org/2000/svg">
  <defs
     id="defs1">
    <style
       id="style1">.cls-1{fill:#ea4335;}.cls-2{fill:#4285f4;}.cls-3{fill:#34a853;}.cls-4{fill:#fbbc05;}.cls-5{fill:#5f6368;}</style>
  </defs>
  <path
     class="cls-1"
     d="M 36.365493,12.700451 H 38.11344 L 43.09509,7.7188013 43.339802,5.6037851 A 22.391205,22.391205 0 0 0 6.9125804,16.528456 2.7093183,2.7093183 0 0 1 8.6605277,16.423579 l 9.9633003,-1.64307 c 0,0 0.506905,-0.839015 0.769097,-0.786577 a 12.427905,12.427905 0 0 1 17.007527,-1.293481 z"
     id="path1"
     style="stroke-width:1.74795" />
  <path
     class="cls-2"
     d="M 50.191756,16.528456 A 22.443643,22.443643 0 0 0 43.4272,5.6212646 l -6.991789,6.9917894 a 12.427905,12.427905 0 0 1 4.562142,9.858422 v 1.241042 a 6.2226925,6.2226925 0 1 1 0,12.445385 H 28.552168 l -1.241042,1.258522 v 7.463735 l 1.241042,1.241042 h 12.445385 a 16.185992,16.185992 0 0 0 9.194203,-29.592746 z"
     id="path2"
     style="stroke-width:1.74795" />
  <path
     class="cls-3"
     d="m 16.089304,46.051285 h 12.445385 v -9.9633 H 16.089304 a 6.1877334,6.1877334 0 0 1 -2.569483,-0.559343 l -1.747947,0.541864 -5.0166088,4.981649 -0.4369868,1.747948 a 16.098594,16.098594 0 0 0 9.7710256,3.251182 z"
     id="path3"
     style="stroke-width:1.74795" />
  <path
     class="cls-4"
     d="M 16.089304,13.73174 A 16.185992,16.185992 0 0 0 6.3182784,42.747664 l 7.2190226,-7.219022 a 6.2226923,6.2226923 0 1 1 8.232832,-8.232832 l 7.219022,-7.219022 A 16.168512,16.168512 0 0 0 16.089304,13.73174 Z"
     id="path4"
     style="stroke-width:1.74795" />
  <path
     class="cls-5"
     d="M 90.446981,39.094454 A 15.9238,15.9238 0 0 1 78.910529,34.357517 15.381936,15.381936 0 0 1 74.068715,22.960901 15.399415,15.399415 0 0 1 78.910529,11.564286 15.9238,15.9238 0 0 1 90.446981,6.7399509 15.451854,15.451854 0 0 1 101.51149,11.197217 l -3.111348,3.163784 a 11.204342,11.204342 0 0 0 -7.953161,-3.146305 11.081986,11.081986 0 0 0 -8.215352,3.495895 11.414096,11.414096 0 0 0 -3.373538,8.302748 11.414096,11.414096 0 0 0 3.373538,8.197873 11.728726,11.728726 0 0 0 16.360787,0.192274 9.2990795,9.2990795 0 0 0 2.394684,-5.436116 H 90.49942 v -4.474745 h 14.84007 a 14.193332,14.193332 0 0 1 0.1748,2.726798 13.983578,13.983578 0 0 1 -3.82801,10.312889 14.875031,14.875031 0 0 1 -11.239299,4.562142 z m 34.504479,-2.97151 a 10.697437,10.697437 0 0 1 -14.80511,0 9.9632995,9.9632995 0 0 1 -3.02395,-7.428776 9.9807789,9.9807789 0 0 1 3.02395,-7.428776 10.714917,10.714917 0 0 1 14.80511,0 9.9807789,9.9807789 0 0 1 3.02395,7.428776 9.9632995,9.9632995 0 0 1 -3.04143,7.428776 z m -11.53645,-2.919072 a 5.6633492,5.6633492 0 0 0 8.26779,0 6.2226923,6.2226923 0 0 0 1.74795,-4.509704 6.2401718,6.2401718 0 0 0 -1.74795,-4.527183 5.7507465,5.7507465 0 0 0 -8.30275,0 6.2401718,6.2401718 0 0 0 -1.74795,4.527183 6.2226923,6.2226923 0 0 0 1.76543,4.509704 z m 34.29473,2.919072 a 10.697437,10.697437 0 0 1 -14.80512,0 9.9632995,9.9632995 0 0 1 -3.02395,-7.428776 9.9807789,9.9807789 0 0 1 3.02395,-7.428776 10.697437,10.697437 0 0 1 14.80512,0 9.9807789,9.9807789 0 0 1 3.02394,7.428776 9.9632995,9.9632995 0 0 1 -3.02394,7.428776 z m -11.53646,-2.919072 a 5.6633492,5.6633492 0 0 0 8.26779,0 6.2226923,6.2226923 0 0 0 1.74795,-4.509704 6.2401718,6.2401718 0 0 0 -1.74795,-4.527183 5.7507465,5.7507465 0 0 0 -8.30275,0 6.2401718,6.2401718 0 0 0 -1.74794,4.527183 6.2226923,6.2226923 0 0 0 1.76542,4.509704 z m 26.49888,15.224621 a 9.1592437,9.1592437 0 0 1 -5.82066,-1.852824 10.714917,10.714917 0 0 1 -3.39102,-4.299951 l 3.98532,-1.66055 a 6.7121175,6.7121175 0 0 0 1.97518,2.604442 4.9816497,4.9816497 0 0 0 3.26866,1.101207 5.2438418,5.2438418 0 0 0 4.07272,-1.573153 6.3800076,6.3800076 0 0 0 1.4508,-4.544663 v -1.503234 h -0.15732 a 6.6596791,6.6596791 0 0 1 -5.47107,2.359728 9.4913537,9.4913537 0 0 1 -6.99179,-3.041428 10.050697,10.050697 0 0 1 -2.98899,-7.323899 10.155574,10.155574 0 0 1 2.98899,-7.376337 9.4738742,9.4738742 0 0 1 6.99179,-3.058908 7.5161733,7.5161733 0 0 1 3.21622,0.716658 6.4674049,6.4674049 0 0 1 2.27233,1.66055 h 0.15732 v -1.66055 h 4.33491 V 37.59122 a 10.854753,10.854753 0 0 1 -2.77924,8.127955 9.7885047,9.7885047 0 0 1 -7.11415,2.709318 z m 0.31463,-13.424235 a 5.0865266,5.0865266 0 0 0 3.95037,-1.747948 6.4674049,6.4674049 0 0 0 1.59063,-4.474745 6.6072407,6.6072407 0 0 0 -1.59063,-4.562142 5.0690471,5.0690471 0 0 0 -3.95037,-1.747947 5.4011571,5.4011571 0 0 0 -4.09019,1.747947 6.3800076,6.3800076 0 0 0 -1.74795,4.527183 6.2576512,6.2576512 0 0 0 1.74795,4.474746 5.4186366,5.4186366 0 0 0 4.09019,1.782906 z M 180.274,7.9110755 V 38.465193 h -4.56214 V 7.9110755 Z m 12.5153,31.1833785 a 9.9283405,9.9283405 0 0 1 -7.35886,-2.988989 10.120615,10.120615 0 0 1 -2.95403,-7.411297 10.242971,10.242971 0 0 1 2.84916,-7.481214 9.3689974,9.3689974 0 0 1 6.99179,-2.919072 8.8271337,8.8271337 0 0 1 3.49589,0.681699 8.2328317,8.2328317 0 0 1 2.67436,1.747947 12.235631,12.235631 0 0 1 1.74795,2.115017 12.497823,12.497823 0 0 1 1.03129,2.045098 l 0.47194,1.188604 -13.98358,5.750747 a 5.2438418,5.2438418 0 0 0 5.03409,3.146305 5.9605002,5.9605002 0 0 0 5.12149,-2.884113 l 3.49589,2.359729 a 11.518973,11.518973 0 0 1 -3.35606,3.181264 9.5088332,9.5088332 0 0 1 -5.26132,1.468275 z m -5.83814,-10.714916 9.29908,-3.862964 a 3.216223,3.216223 0 0 0 -1.4508,-1.590632 4.7369371,4.7369371 0 0 0 -2.39469,-0.611781 5.4011571,5.4011571 0 0 0 -3.75808,1.660549 5.5409929,5.5409929 0 0 0 -1.69551,4.404828 z"
     id="path5"
     style="stroke-width:1.74795" />
  <path
     class="cls-5"
     d="m 225.63323,39.094454 a 14.403086,14.403086 0 0 1 -14.6478,-14.735195 14.403086,14.403086 0 0 1 14.6478,-14.7351951 13.039687,13.039687 0 0 1 10.36533,4.6145811 l -2.51705,2.447126 a 9.5088332,9.5088332 0 0 0 -7.8308,-3.583292 10.679958,10.679958 0 0 0 -7.77836,3.111346 10.907191,10.907191 0 0 0 -3.16379,8.145434 10.907191,10.907191 0 0 0 3.16379,8.145434 10.679958,10.679958 0 0 0 7.77836,3.111346 11.116945,11.116945 0 0 0 8.73974,-4.090196 l 2.51704,2.517044 a 13.738866,13.738866 0 0 1 -4.84181,3.688168 14.822593,14.822593 0 0 1 -6.43245,1.363399 z"
     id="path6"
     style="stroke-width:1.74795" />
  <path
     class="cls-5"
     d="M 243.67205,38.465193 H 240.0538 V 10.235846 h 3.61825 z"
     id="path7"
     style="stroke-width:1.74795" />
  <path
     class="cls-5"
     d="m 249.58011,21.475146 a 10.120615,10.120615 0 0 1 14.26325,0 10.225492,10.225492 0 0 1 2.79671,7.341379 10.225492,10.225492 0 0 1 -2.79671,7.341378 10.120615,10.120615 0 0 1 -14.26325,0 10.225492,10.225492 0 0 1 -2.79672,-7.341378 10.225492,10.225492 0 0 1 2.79672,-7.341379 z m 2.69184,12.410426 a 6.100336,6.100336 0 0 0 8.86209,0 6.9917891,6.9917891 0 0 0 1.8703,-5.069047 6.9917891,6.9917891 0 0 0 -1.8703,-5.069047 6.100336,6.100336 0 0 0 -8.86209,0 6.9917891,6.9917891 0 0 0 -1.87031,5.069047 6.9917891,6.9917891 0 0 0 1.88779,5.051567 z"
     id="path8"
     style="stroke-width:1.74795" />
  <path
     class="cls-5"
     d="m 286.68903,38.465194 h -3.4959 v -2.67436 h -0.10487 a 6.729597,6.729597 0 0 1 -2.55201,2.412168 7.1316249,7.1316249 0 0 1 -3.58329,0.961371 6.7995149,6.7995149 0 0 1 -5.48855,-2.202414 8.7397364,8.7397364 0 0 1 -1.87031,-5.908062 V 19.167856 h 3.61826 v 11.221821 q 0,5.401157 4.77189,5.401157 a 4.4397861,4.4397861 0 0 0 3.67069,-1.747947 6.5897612,6.5897612 0 0 0 1.41584,-4.177594 V 19.167856 h 3.61825 z"
     id="path9"
     style="stroke-width:1.74795" />
  <path
     class="cls-5"
     d="m 298.9771,39.094454 a 8.4950238,8.4950238 0 0 1 -6.46741,-2.954031 10.487684,10.487684 0 0 1 -2.70931,-7.323899 10.487684,10.487684 0 0 1 2.70931,-7.323899 8.4950238,8.4950238 0 0 1 6.46741,-2.954031 8.1978727,8.1978727 0 0 1 3.95036,0.943892 6.6946381,6.6946381 0 0 1 2.62192,2.359729 h 0.15732 l -0.15732,-2.67436 v -8.932009 h 3.61825 v 28.229347 h -3.49589 v -2.674359 h -0.15732 a 6.6946381,6.6946381 0 0 1 -2.62192,2.359729 8.1978727,8.1978727 0 0 1 -3.9154,0.943891 z m 0.5943,-3.30362 a 5.768226,5.768226 0 0 0 4.35239,-1.887783 7.0791865,7.0791865 0 0 0 1.74795,-5.086527 7.0791865,7.0791865 0 0 0 -1.74795,-5.086526 5.9080618,5.9080618 0 0 0 -8.73974,0 6.9917891,6.9917891 0 0 0 -1.74794,5.069047 6.9917891,6.9917891 0 0 0 1.74794,5.069047 5.768226,5.768226 0 0 0 4.38735,1.922742 z"
     id="path10"
     style="stroke-width:1.74795" />
  <path
     class="cls-1"
     d="M 36.365493,12.700451 H 38.11344 L 43.09509,7.7188013 43.339802,5.6037851 A 22.391205,22.391205 0 0 0 6.9125804,16.528456 2.7093183,2.7093183 0 0 1 8.6605277,16.423579 l 9.9633003,-1.64307 c 0,0 0.506905,-0.839015 0.769097,-0.786577 a 12.427905,12.427905 0 0 1 17.007527,-1.293481 z"
     id="path11"
     style="stroke-width:1.74795" />
  <path
     class="cls-2"
     d="M 50.191756,16.528456 A 22.443643,22.443643 0 0 0 43.4272,5.6212646 l -6.991789,6.9917894 a 12.427905,12.427905 0 0 1 4.562142,9.858422 v 1.241042 a 6.2226925,6.2226925 0 1 1 0,12.445385 H 28.552168 l -1.241042,1.258522 v 7.463735 l 1.241042,1.241042 h 12.445385 a 16.185992,16.185992 0 0 0 9.194203,-29.592746 z"
     id="path12"
     style="stroke-width:1.74795" />
  <path
     class="cls-3"
     d="m 16.089304,46.051285 h 12.445385 v -9.9633 H 16.089304 a 6.1877334,6.1877334 0 0 1 -2.569483,-0.559343 l -1.747947,0.541864 -5.0166088,4.981649 -0.4369868,1.747948 a 16.098594,16.098594 0 0 0 9.7710256,3.251182 z"
     id="path13"
     style="stroke-width:1.74795" />
  <path
     class="cls-4"
     d="M 16.089304,13.73174 A 16.185992,16.185992 0 0 0 6.3182784,42.747664 l 7.2190226,-7.219022 a 6.2226923,6.2226923 0 1 1 8.232832,-8.232832 l 7.219022,-7.219022 A 16.168512,16.168512 0 0 0 16.089304,13.73174 Z"
     id="path14"
     style="stroke-width:1.74795" />
  <path
     class="cls-5"
     d="M 90.446981,39.094454 A 15.9238,15.9238 0 0 1 78.910529,34.357517 15.381936,15.381936 0 0 1 74.068715,22.960901 15.399415,15.399415 0 0 1 78.910529,11.564286 15.9238,15.9238 0 0 1 90.446981,6.7399509 15.451854,15.451854 0 0 1 101.51149,11.197217 l -3.111348,3.163784 a 11.204342,11.204342 0 0 0 -7.953161,-3.146305 11.081986,11.081986 0 0 0 -8.215352,3.495895 11.414096,11.414096 0 0 0 -3.373538,8.302748 11.414096,11.414096 0 0 0 3.373538,8.197873 11.728726,11.728726 0 0 0 16.360787,0.192274 9.2990795,9.2990795 0 0 0 2.394684,-5.436116 H 90.49942 v -4.474745 h 14.84007 a 14.193332,14.193332 0 0 1 0.1748,2.726798 13.983578,13.983578 0 0 1 -3.82801,10.312889 14.875031,14.875031 0 0 1 -11.239299,4.562142 z m 34.504479,-2.97151 a 10.697437,10.697437 0 0 1 -14.80511,0 9.9632995,9.9632995 0 0 1 -3.02395,-7.428776 9.9807789,9.9807789 0 0 1 3.02395,-7.428776 10.714917,10.714917 0 0 1 14.80511,0 9.9807789,9.9807789 0 0 1 3.02395,7.428776 9.9632995,9.9632995 0 0 1 -3.04143,7.428776 z m -11.53645,-2.919072 a 5.6633492,5.6633492 0 0 0 8.26779,0 6.2226923,6.2226923 0 0 0 1.74795,-4.509704 6.2401718,6.2401718 0 0 0 -1.74795,-4.527183 5.7507465,5.7507465 0 0 0 -8.30275,0 6.2401718,6.2401718 0 0 0 -1.74795,4.527183 6.2226923,6.2226923 0 0 0 1.76543,4.509704 z m 34.29473,2.919072 a 10.697437,10.697437 0 0 1 -14.80512,0 9.9632995,9.9632995 0 0 1 -3.02395,-7.428776 9.9807789,9.9807789 0 0 1 3.02395,-7.428776 10.697437,10.697437 0 0 1 14.80512,0 9.9807789,9.9807789 0 0 1 3.02394,7.428776 9.9632995,9.9632995 0 0 1 -3.02394,7.428776 z m -11.53646,-2.919072 a 5.6633492,5.6633492 0 0 0 8.26779,0 6.2226923,6.2226923 0 0 0 1.74795,-4.509704 6.2401718,6.2401718 0 0 0 -1.74795,-4.527183 5.7507465,5.7507465 0 0 0 -8.30275,0 6.2401718,6.2401718 0 0 0 -1.74794,4.527183 6.2226923,6.2226923 0 0 0 1.76542,4.509704 z m 26.49888,15.224621 a 9.1592437,9.1592437 0 0 1 -5.82066,-1.852824 10.714917,10.714917 0 0 1 -3.39102,-4.299951 l 3.98532,-1.66055 a 6.7121175,6.7121175 0 0 0 1.97518,2.604442 4.9816497,4.9816497 0 0 0 3.26866,1.101207 5.2438418,5.2438418 0 0 0 4.07272,-1.573153 6.3800076,6.3800076 0 0 0 1.4508,-4.544663 v -1.503234 h -0.15732 a 6.6596791,6.6596791 0 0 1 -5.47107,2.359728 9.4913537,9.4913537 0 0 1 -6.99179,-3.041428 10.050697,10.050697 0 0 1 -2.98899,-7.323899 10.155574,10.155574 0 0 1 2.98899,-7.376337 9.4738742,9.4738742 0 0 1 6.99179,-3.058908 7.5161733,7.5161733 0 0 1 3.21622,0.716658 6.4674049,6.4674049 0 0 1 2.27233,1.66055 h 0.15732 v -1.66055 h 4.33491 V 37.59122 a 10.854753,10.854753 0 0 1 -2.77924,8.127955 9.7885047,9.7885047 0 0 1 -7.11415,2.709318 z m 0.31463,-13.424235 a 5.0865266,5.0865266 0 0 0 3.95037,-1.747948 6.4674049,6.4674049 0 0 0 1.59063,-4.474745 6.6072407,6.6072407 0 0 0 -1.59063,-4.562142 5.0690471,5.0690471 0 0 0 -3.95037,-1.747947 5.4011571,5.4011571 0 0 0 -4.09019,1.747947 6.3800076,6.3800076 0 0 0 -1.74795,4.527183 6.2576512,6.2576512 0 0 0 1.74795,4.474746 5.4186366,5.4186366 0 0 0 4.09019,1.782906 z M 180.274,7.9110755 V 38.465193 h -4.56214 V 7.9110755 Z m 12.5153,31.1833785 a 9.9283405,9.9283405 0 0 1 -7.35886,-2.988989 10.120615,10.120615 0 0 1 -2.95403,-7.411297 10.242971,10.242971 0 0 1 2.84916,-7.481214 9.3689974,9.3689974 0 0 1 6.99179,-2.919072 8.8271337,8.8271337 0 0 1 3.49589,0.681699 8.2328317,8.2328317 0 0 1 2.67436,1.747947 12.235631,12.235631 0 0 1 1.74795,2.115017 12.497823,12.497823 0 0 1 1.03129,2.045098 l 0.47194,1.188604 -13.98358,5.750747 a 5.2438418,5.2438418 0 0 0 5.03409,3.146305 5.9605002,5.9605002 0 0 0 5.12149,-2.884113 l 3.49589,2.359729 a 11.518973,11.518973 0 0 1 -3.35606,3.181264 9.5088332,9.5088332 0 0 1 -5.26132,1.468275 z m -5.83814,-10.714916 9.29908,-3.862964 a 3.216223,3.216223 0 0 0 -1.4508,-1.590632 4.7369371,4.7369371 0 0 0 -2.39469,-0.611781 5.4011571,5.4011571 0 0 0 -3.75808,1.660549 5.5409929,5.5409929 0 0 0 -1.69551,4.404828 z"
     id="path15"
     style="stroke-width:1.74795" />
  <path
     class="cls-5"
     d="m 225.63323,39.094454 a 14.403086,14.403086 0 0 1 -14.6478,-14.735195 14.403086,14.403086 0 0 1 14.6478,-14.7351951 13.039687,13.039687 0 0 1 10.36533,4.6145811 l -2.51705,2.447126 a 9.5088332,9.5088332 0 0 0 -7.8308,-3.583292 10.679958,10.679958 0 0 0 -7.77836,3.111346 10.907191,10.907191 0 0 0 -3.16379,8.145434 10.907191,10.907191 0 0 0 3.16379,8.145434 10.679958,10.679958 0 0 0 7.77836,3.111346 11.116945,11.116945 0 0 0 8.73974,-4.090196 l 2.51704,2.517044 a 13.738866,13.738866 0 0 1 -4.84181,3.688168 14.822593,14.822593 0 0 1 -6.43245,1.363399 z"
     id="path16"
     style="stroke-width:1.74795" />
  <path
     class="cls-5"
     d="M 243.67205,38.465193 H 240.0538 V 10.235846 h 3.61825 z"
     id="path17"
     style="stroke-width:1.74795" />
  <path
     class="cls-5"
     d="m 249.58011,21.475146 a 10.120615,10.120615 0 0 1 14.26325,0 10.225492,10.225492 0 0 1 2.79671,7.341379 10.225492,10.225492 0 0 1 -2.79671,7.341378 10.120615,10.120615 0 0 1 -14.26325,0 10.225492,10.225492 0 0 1 -2.79672,-7.341378 10.225492,10.225492 0 0 1 2.79672,-7.341379 z m 2.69184,12.410426 a 6.100336,6.100336 0 0 0 8.86209,0 6.9917891,6.9917891 0 0 0 1.8703,-5.069047 6.9917891,6.9917891 0 0 0 -1.8703,-5.069047 6.100336,6.100336 0 0 0 -8.86209,0 6.9917891,6.9917891 0 0 0 -1.87031,5.069047 6.9917891,6.9917891 0 0 0 1.88779,5.051567 z"
     id="path18"
     style="stroke-width:1.74795" />
  <path
     class="cls-5"
     d="m 286.68903,38.465194 h -3.4959 v -2.67436 h -0.10487 a 6.729597,6.729597 0 0 1 -2.55201,2.412168 7.1316249,7.1316249 0 0 1 -3.58329,0.961371 6.7995149,6.7995149 0 0 1 -5.48855,-2.202414 8.7397364,8.7397364 0 0 1 -1.87031,-5.908062 V 19.167856 h 3.61826 v 11.221821 q 0,5.401157 4.77189,5.401157 a 4.4397861,4.4397861 0 0 0 3.67069,-1.747947 6.5897612,6.5897612 0 0 0 1.41584,-4.177594 V 19.167856 h 3.61825 z"
     id="path19"
     style="stroke-width:1.74795" />
  <path
     class="cls-5"
     d="m 298.9771,39.094454 a 8.4950238,8.4950238 0 0 1 -6.46741,-2.954031 10.487684,10.487684 0 0 1 -2.70931,-7.323899 10.487684,10.487684 0 0 1 2.70931,-7.323899 8.4950238,8.4950238 0 0 1 6.46741,-2.954031 8.1978727,8.1978727 0 0 1 3.95036,0.943892 6.6946381,6.6946381 0 0 1 2.62192,2.359729 h 0.15732 l -0.15732,-2.67436 v -8.932009 h 3.61825 v 28.229347 h -3.49589 v -2.674359 h -0.15732 a 6.6946381,6.6946381 0 0 1 -2.62192,2.359729 8.1978727,8.1978727 0 0 1 -3.9154,0.943891 z m 0.5943,-3.30362 a 5.768226,5.768226 0 0 0 4.35239,-1.887783 7.0791865,7.0791865 0 0 0 1.74795,-5.086527 7.0791865,7.0791865 0 0 0 -1.74795,-5.086526 5.9080618,5.9080618 0 0 0 -8.73974,0 6.9917891,6.9917891 0 0 0 -1.74794,5.069047 6.9917891,6.9917891 0 0 0 1.74794,5.069047 5.768226,5.768226 0 0 0 4.38735,1.922742 z"
     id="path20"
     style="stroke-width:1.74795" />
</svg>
