<?xml version="1.0" encoding="UTF-8" standalone="no"?>
<!-- Created with Inkscape (http://www.inkscape.org/) -->

<svg
   width="6.3883719mm"
   height="6.3644147mm"
   viewBox="0 0 6.3883719 6.3644147"
   version="1.1"
   id="svg1"
   inkscape:version="1.3 (0e150ed6c4, 2023-07-21)"
   sodipodi:docname="certificate.svg"
   xmlns:inkscape="http://www.inkscape.org/namespaces/inkscape"
   xmlns:sodipodi="http://sodipodi.sourceforge.net/DTD/sodipodi-0.dtd"
   xmlns="http://www.w3.org/2000/svg"
   xmlns:svg="http://www.w3.org/2000/svg">
  <sodipodi:namedview
     id="namedview1"
     pagecolor="#ffffff"
     bordercolor="#000000"
     borderopacity="0.25"
     inkscape:showpageshadow="2"
     inkscape:pageopacity="0.0"
     inkscape:pagecheckerboard="true"
     inkscape:deskcolor="#d1d1d1"
     inkscape:document-units="mm"
     inkscape:zoom="0.67348485"
     inkscape:cx="11.878515"
     inkscape:cy="11.878515"
     inkscape:window-width="1728"
     inkscape:window-height="1011"
     inkscape:window-x="0"
     inkscape:window-y="0"
     inkscape:window-maximized="1"
     inkscape:current-layer="layer1" />
  <defs
     id="defs1" />
  <g
     inkscape:label="Layer 1"
     inkscape:groupmode="layer"
     id="layer1"
     transform="translate(-101.59998,-145.25617)">
    <path
       fill="#486baf"
       d="m 107.3182,148.43204 0.56885,0.55828 a 0.2936875,0.2936875 0 0 1 -0.13493,0.49477 l -0.79375,0.19843 0.22225,0.76994 a 0.29897916,0.29897916 0 0 1 -0.37307,0.37306 l -0.76729,-0.22489 -0.19843,0.79375 a 0.2936875,0.2936875 0 0 1 -0.49742,0.13494 l -0.55827,-0.56886 -0.55827,0.56886 a 0.28575,0.28575 0 0 1 -0.28575,0.0767 0.26458333,0.26458333 0 0 1 -0.20373,-0.21695 l -0.19844,-0.79375 -0.76994,0.22489 a 0.28310416,0.28310416 0 0 1 -0.29633,-0.0741 0.28045833,0.28045833 0 0 1 -0.0741,-0.29898 l 0.22225,-0.76994 -0.79375,-0.19844 a 0.26458333,0.26458333 0 0 1 -0.21167,-0.20372 0.26458333,0.26458333 0 0 1 0.0741,-0.29105 l 0.59267,-0.55298 -0.5715,-0.55827 a 0.26458333,0.26458333 0 0 1 -0.0741,-0.29104 0.26458333,0.26458333 0 0 1 0.21166,-0.20373 l 0.79375,-0.19843 -0.22225,-0.76994 a 0.28045833,0.28045833 0 0 1 0.0741,-0.29898 0.28310416,0.28310416 0 0 1 0.2831,-0.0609 l 0.76994,0.2249 0.19844,-0.79375 a 0.29104166,0.29104166 0 0 1 0.49477,-0.13494 l 0.55827,0.58209 0.55827,-0.58209 a 0.29897916,0.29897916 0 0 1 0.49741,0.13494 l 0.19844,0.79375 0.76729,-0.2249 a 0.29897916,0.29897916 0 0 1 0.37307,0.37307 l -0.22225,0.76993 0.79375,0.19844 a 0.2936875,0.2936875 0 0 1 0.13493,0.49477 z"
       class="aed481d6-b398-47b8-9ce5-42d243fcc803"
       id="path104"
       style="stroke-width:0.264583" />
  </g>
</svg>
