<svg xmlns="http://www.w3.org/2000/svg" xmlns:xlink="http://www.w3.org/1999/xlink" version="1.1" x="0px" y="0px" viewBox="0 0 100 100" enable-background="new 0 0 100 100" xml:space="preserve"><path d="M31.6,33.4c4-1.8,3-4.3,4.7-5.3c1.2-0.6,2,0.3,2.7,0.5c-0.1,0.4-0.1,0.9-0.2,1.3c-0.3,5.7,4,10.5,9.7,10.8  c5.7,0.3,10.5-4,10.8-9.7c0.3-5.7-4-10.5-9.7-10.8c-3.8-0.2-7.1,1.6-9.1,4.5c-0.5-1-1.5-2.6-3.1-3.1c-2.9-0.9-6.2,0.4-7.9,2.7  c-1.7,2.3-1.8,6.8-6.6,7.8C20.7,32.8,28,35,31.6,33.4z"></path><path d="M71.8,67.4c0-3-2.3-4.4-5.2-4.4H49.9l-6.7-18.4l0,0c-1-3.2-4-5.6-7.6-5.6c-1.3,0-2.5,0.3-3.6,0.9l0,0  C17.5,47.2,9.1,60.6,5.9,80.3l19,0c0.5-8.3,2-18,8.8-23.8l7.8,11.7l0,0c0.9,1.7,2.7,3,4.7,3h20.3C69.6,71.2,71.8,70.4,71.8,67.4z"></path><path d="M84.7,80.5H67.5c-1.9,0-3.5-1.6-3.5-3.5s1.6-3.5,3.5-3.5h14.7L88.7,55c0.6-1.8,2.6-2.8,4.5-2.1c1.8,0.6,2.8,2.6,2.1,4.5  L88,78.2C87.5,79.6,86.2,80.5,84.7,80.5z"></path></svg>