<svg xmlns="http://www.w3.org/2000/svg" xmlns:xlink="http://www.w3.org/1999/xlink" version="1.1" width="256" height="256" viewBox="0 0 256 256" xml:space="preserve">

<defs>
</defs>
<g style="stroke: none; stroke-width: 0; stroke-dasharray: none; stroke-linecap: butt; stroke-linejoin: miter; stroke-miterlimit: 10; fill: none; fill-rule: nonzero; opacity: 1;" transform="translate(1.4065934065934016 1.4065934065934016) scale(2.81 2.81)" >
	<path d="M 82.667 64.119 V 20.892 c 0 -1.922 -1.563 -3.485 -3.485 -3.485 H 10.818 c -1.921 0 -3.485 1.563 -3.485 3.485 v 43.228 H 0 v 1 c 0 4.121 3.354 7.475 7.475 7.475 h 75.05 c 4.121 0 7.475 -3.354 7.475 -7.475 v -1 H 82.667 z M 26.83 28.251 l 3.567 -3.567 c 0.391 -0.391 1.023 -0.391 1.414 0 s 0.391 1.024 0 1.414 l -3.567 3.567 c -0.195 0.195 -0.451 0.293 -0.707 0.293 s -0.512 -0.098 -0.707 -0.293 C 26.439 29.275 26.439 28.642 26.83 28.251 z M 24.927 31.568 c 0.391 0.391 0.391 1.023 0 1.414 l -8.736 8.736 c -0.195 0.195 -0.451 0.293 -0.707 0.293 s -0.512 -0.098 -0.707 -0.293 c -0.391 -0.391 -0.391 -1.023 0 -1.414 l 8.736 -8.736 C 23.904 31.178 24.537 31.178 24.927 31.568 z M 14.556 32.04 l 7.577 -7.577 c 0.391 -0.391 1.023 -0.391 1.414 0 s 0.391 1.023 0 1.414 l -7.577 7.577 c -0.195 0.195 -0.451 0.293 -0.707 0.293 s -0.512 -0.098 -0.707 -0.293 C 14.166 33.063 14.166 32.431 14.556 32.04 z M 82.525 70.594 H 7.475 c -2.678 0 -4.912 -1.932 -5.384 -4.475 h 38.689 c 0.318 1.283 1.468 2.237 2.849 2.237 h 2.741 c 1.381 0 2.531 -0.954 2.849 -2.237 h 38.689 C 87.438 68.662 85.203 70.594 82.525 70.594 z" style="stroke: none; stroke-width: 1; stroke-dasharray: none; stroke-linecap: butt; stroke-linejoin: miter; stroke-miterlimit: 10; fill: rgb(0,0,0); fill-rule: nonzero; opacity: 1;" transform=" matrix(1 0 0 1 0 0) " stroke-linecap="round" />
</g>
</svg>