<?xml version="1.0" encoding="UTF-8" standalone="no"?>
<svg
   xmlns:dc="http://purl.org/dc/elements/1.1/"
   xmlns:cc="http://creativecommons.org/ns#"
   xmlns:rdf="http://www.w3.org/1999/02/22-rdf-syntax-ns#"
   xmlns:svg="http://www.w3.org/2000/svg"
   xmlns="http://www.w3.org/2000/svg"
   xmlns:sodipodi="http://sodipodi.sourceforge.net/DTD/sodipodi-0.dtd"
   xmlns:inkscape="http://www.inkscape.org/namespaces/inkscape"
   inkscape:version="1.0 (4035a4fb49, 2020-05-01)"
   height="391.60001"
   width="348.52014"
   sodipodi:docname="graphql_logo.svg"
   xml:space="preserve"
   enable-background="new 0 0 400 400"
   viewBox="0 0 348.52014 391.60001"
   y="0px"
   x="0px"
   id="GraphQL_Logo"
   version="1.1"><metadata
   id="metadata1015"><rdf:RDF><cc:Work
       rdf:about=""><dc:format>image/svg+xml</dc:format><dc:type
         rdf:resource="http://purl.org/dc/dcmitype/StillImage" /><dc:title></dc:title></cc:Work></rdf:RDF></metadata><defs
   id="defs1013" /><sodipodi:namedview
   inkscape:current-layer="GraphQL_Logo"
   inkscape:window-maximized="1"
   inkscape:window-y="28"
   inkscape:window-x="0"
   inkscape:cy="195.8"
   inkscape:cx="91.75102"
   inkscape:zoom="2.0725"
   fit-margin-bottom="0"
   fit-margin-right="0"
   fit-margin-left="0"
   fit-margin-top="0"
   inkscape:pagecheckerboard="true"
   showgrid="false"
   id="namedview1011"
   inkscape:window-height="1024"
   inkscape:window-width="1920"
   inkscape:pageshadow="2"
   inkscape:pageopacity="0"
   guidetolerance="10"
   gridtolerance="10"
   objecttolerance="10"
   borderopacity="1"
   bordercolor="#666666"
   pagecolor="#ffffff" />
<g
   transform="translate(-25.739933,-4.2)"
   style="fill:#ffffff"
   id="g1008">
	<g
   style="fill:#ffffff"
   id="g946">
		<g
   style="fill:#ffffff"
   id="g944">
			
				<rect
   style="fill:#ffffff"
   id="rect942"
   height="320.29999"
   width="16.6"
   fill="#e535ab"
   transform="matrix(-0.866,-0.5,0.5,-0.866,163.3196,363.3136)"
   y="-0.40000001"
   x="122" />
		</g>
	</g>
	<g
   style="fill:#ffffff"
   id="g952">
		<g
   style="fill:#ffffff"
   id="g950">
			<rect
   style="fill:#ffffff"
   id="rect948"
   height="16.6"
   width="320.29999"
   fill="#e535ab"
   y="272.20001"
   x="39.799999" />
		</g>
	</g>
	<g
   style="fill:#ffffff"
   id="g958">
		<g
   style="fill:#ffffff"
   id="g956">
			
				<rect
   style="fill:#ffffff"
   id="rect954"
   height="16.6"
   width="185"
   fill="#e535ab"
   transform="matrix(-0.866,-0.5,0.5,-0.866,83.0693,663.3409)"
   y="312.20001"
   x="37.900002" />
		</g>
	</g>
	<g
   style="fill:#ffffff"
   id="g964">
		<g
   style="fill:#ffffff"
   id="g962">
			
				<rect
   style="fill:#ffffff"
   id="rect960"
   height="16.6"
   width="185"
   fill="#e535ab"
   transform="matrix(-0.866,-0.5,0.5,-0.866,463.3409,283.0693)"
   y="71.099998"
   x="177.10001" />
		</g>
	</g>
	<g
   style="fill:#ffffff"
   id="g970">
		<g
   style="fill:#ffffff"
   id="g968">
			
				<rect
   style="fill:#ffffff"
   id="rect966"
   height="185"
   width="16.6"
   fill="#e535ab"
   transform="matrix(-0.5,-0.866,0.866,-0.5,126.7903,232.1221)"
   y="-13"
   x="122.1" />
		</g>
	</g>
	<g
   style="fill:#ffffff"
   id="g976">
		<g
   style="fill:#ffffff"
   id="g974">
			
				<rect
   style="fill:#ffffff"
   id="rect972"
   height="16.6"
   width="320.29999"
   fill="#e535ab"
   transform="matrix(-0.5,-0.866,0.866,-0.5,266.0828,473.3766)"
   y="151.60001"
   x="109.6" />
		</g>
	</g>
	<g
   style="fill:#ffffff"
   id="g982">
		<g
   style="fill:#ffffff"
   id="g980">
			<rect
   style="fill:#ffffff"
   id="rect978"
   height="185"
   width="16.6"
   fill="#e535ab"
   y="107.5"
   x="52.5" />
		</g>
	</g>
	<g
   style="fill:#ffffff"
   id="g988">
		<g
   style="fill:#ffffff"
   id="g986">
			<rect
   style="fill:#ffffff"
   id="rect984"
   height="185"
   width="16.6"
   fill="#e535ab"
   y="107.5"
   x="330.89999" />
		</g>
	</g>
	<g
   style="fill:#ffffff"
   id="g994">
		<g
   style="fill:#ffffff"
   id="g992">
			
				<rect
   style="fill:#ffffff"
   id="rect990"
   height="160.89999"
   width="14.5"
   fill="#e535ab"
   transform="matrix(-0.5,-0.866,0.866,-0.5,126.7953,714.2875)"
   y="240.10001"
   x="262.39999" />
		</g>
	</g>
	<path
   style="fill:#ffffff"
   id="path996"
   d="m 369.5,297.9 c -9.6,16.7 -31,22.4 -47.7,12.8 -16.7,-9.6 -22.4,-31 -12.8,-47.7 9.6,-16.7 31,-22.4 47.7,-12.8 16.8,9.7 22.5,31 12.8,47.7"
   fill="#e535ab" />
	<path
   style="fill:#ffffff"
   id="path998"
   d="m 90.9,137 c -9.6,16.7 -31,22.4 -47.7,12.8 -16.7,-9.6 -22.4,-31 -12.8,-47.7 9.6,-16.7 31,-22.4 47.7,-12.8 16.7,9.7 22.4,31 12.8,47.7"
   fill="#e535ab" />
	<path
   style="fill:#ffffff"
   id="path1000"
   d="m 30.5,297.9 c -9.6,-16.7 -3.9,-38 12.8,-47.7 16.7,-9.6 38,-3.9 47.7,12.8 9.6,16.7 3.9,38 -12.8,47.7 -16.8,9.6 -38.1,3.9 -47.7,-12.8"
   fill="#e535ab" />
	<path
   style="fill:#ffffff"
   id="path1002"
   d="m 309.1,137 c -9.6,-16.7 -3.9,-38 12.8,-47.7 16.7,-9.6 38,-3.9 47.7,12.8 9.6,16.7 3.9,38 -12.8,47.7 -16.7,9.6 -38.1,3.9 -47.7,-12.8"
   fill="#e535ab" />
	<path
   style="fill:#ffffff"
   id="path1004"
   d="m 200,395.8 c -19.3,0 -34.9,-15.6 -34.9,-34.9 0,-19.3 15.6,-34.9 34.9,-34.9 19.3,0 34.9,15.6 34.9,34.9 0,19.2 -15.6,34.9 -34.9,34.9"
   fill="#e535ab" />
	<path
   style="fill:#ffffff"
   id="path1006"
   d="m 200,74 c -19.3,0 -34.9,-15.6 -34.9,-34.9 0,-19.3 15.6,-34.9 34.9,-34.9 19.3,0 34.9,15.6 34.9,34.9 0,19.3 -15.6,34.9 -34.9,34.9"
   fill="#e535ab" />
</g>
</svg>
