<?xml version="1.0" encoding="UTF-8" standalone="no"?>
<svg
   xmlns:dc="http://purl.org/dc/elements/1.1/"
   xmlns:cc="http://creativecommons.org/ns#"
   xmlns:rdf="http://www.w3.org/1999/02/22-rdf-syntax-ns#"
   xmlns:svg="http://www.w3.org/2000/svg"
   xmlns="http://www.w3.org/2000/svg"
   id="svg8"
   version="1.1"
   viewBox="0 0 113.68346 110.86839"
   height="110.86839mm"
   width="113.68346mm">
  <defs
     id="defs2" />
  <metadata
     id="metadata5">
    <rdf:RDF>
      <cc:Work
         rdf:about="">
        <dc:format>image/svg+xml</dc:format>
        <dc:type
           rdf:resource="http://purl.org/dc/dcmitype/StillImage" />
        <dc:title></dc:title>
      </cc:Work>
    </rdf:RDF>
  </metadata>
  <g
     transform="translate(-54.342825,-43.45559)"
     id="layer1">
    <path
       style="stroke-width:0.529167"
       fill-rule="evenodd"
       d="m 111.1791,43.45559 c -31.401977,0 -56.836275,25.434244 -56.836275,56.83631 0,25.15006 16.269374,46.39266 38.861811,53.92352 2.84186,0.49675 3.907474,-1.20834 3.907474,-2.69982 0,-1.34984 -0.06713,-5.82563 -0.06713,-10.58579 -14.280058,2.6288 -17.974464,-3.4812 -19.111235,-6.67817 -0.639073,-1.63407 -3.410179,-6.67832 -5.825633,-8.02816 -1.989316,-1.06601 -4.831176,-3.6944 -0.06713,-3.76543 4.475793,-0.0671 7.672903,4.12068 8.738516,5.82577 5.115269,8.59647 13.285468,6.18088 16.553601,4.689 0.496758,-3.69441 1.989316,-6.18102 3.623251,-7.60188 -12.645995,-1.42086 -25.860439,-6.32306 -25.860439,-28.062943 0,-6.180949 2.202385,-11.296218 5.825634,-15.274756 -0.567916,-1.420917 -2.557635,-7.24663 0.567915,-15.061633 0,0 4.760019,-1.491953 15.629898,5.825727 4.546952,-1.278817 9.377992,-1.918226 14.209172,-1.918226 4.83104,0 9.66208,0.639342 14.20903,1.918226 10.86988,-7.388717 15.63004,-5.825727 15.63004,-5.825727 3.12595,7.815003 1.13717,13.640716 0.56791,15.061633 3.62325,3.978538 5.82577,9.022757 5.82577,15.274756 0,21.810903 -13.2856,26.642083 -25.93159,28.062943 2.06034,1.77611 3.83645,5.18629 3.83645,10.51476 0,7.60175 -0.0671,13.71174 -0.0671,15.6299 0,1.49202 1.06602,3.26813 3.90747,2.69982 a 56.928677,56.928677 0 0 0 38.71977,-53.92352 c 0,-31.402066 -25.4343,-56.83631 -56.83641,-56.83631 z"
       id="path314" />
  </g>
</svg>
